<svg width="16" height="18" viewBox="0 0 16 18" fill="none" xmlns="http://www.w3.org/2000/svg">
<path d="M5.35417 12.5416C4.78472 12.5416 4.30556 12.3472 3.91667 11.9583C3.52778 11.5694 3.33333 11.0902 3.33333 10.5208C3.33333 9.95135 3.52778 9.47218 3.91667 9.08329C4.30556 8.6944 4.78472 8.49996 5.35417 8.49996C5.92361 8.49996 6.40278 8.6944 6.79167 9.08329C7.18056 9.47218 7.375 9.95135 7.375 10.5208C7.375 11.0902 7.18056 11.5694 6.79167 11.9583C6.40278 12.3472 5.92361 12.5416 5.35417 12.5416ZM1.75 17.3333C1.41667 17.3333 1.125 17.2083 0.875 16.9583C0.625 16.7083 0.5 16.4166 0.5 16.0833V3.16663C0.5 2.83329 0.625 2.54163 0.875 2.29163C1.125 2.04163 1.41667 1.91663 1.75 1.91663H3.10417V0.666626H4.45833V1.91663H11.5417V0.666626H12.8958V1.91663H14.25C14.5833 1.91663 14.875 2.04163 15.125 2.29163C15.375 2.54163 15.5 2.83329 15.5 3.16663V16.0833C15.5 16.4166 15.375 16.7083 15.125 16.9583C14.875 17.2083 14.5833 17.3333 14.25 17.3333H1.75ZM1.75 16.0833H14.25V7.12496H1.75V16.0833ZM1.75 5.87496H14.25V3.16663H1.75V5.87496ZM1.75 5.87496V3.16663V5.87496Z" fill="#262424"/>
</svg>
