<svg width="19" height="14" viewBox="0 0 19 14" fill="none" xmlns="http://www.w3.org/2000/svg">
<path d="M13.5 5.70829V4.45829H18.3334V5.70829H13.5ZM7.50004 6.97913C6.58337 6.97913 5.83337 6.68746 5.25004 6.10413C4.66671 5.52079 4.37504 4.77079 4.37504 3.85413C4.37504 2.93746 4.66671 2.18746 5.25004 1.60413C5.83337 1.02079 6.58337 0.729126 7.50004 0.729126C8.41671 0.729126 9.16671 1.02079 9.75004 1.60413C10.3334 2.18746 10.625 2.93746 10.625 3.85413C10.625 4.77079 10.3334 5.52079 9.75004 6.10413C9.16671 6.68746 8.41671 6.97913 7.50004 6.97913ZM0.833374 13.6666V11.7083C0.833374 11.2222 0.954902 10.7812 1.19796 10.3854C1.44101 9.98954 1.79171 9.6944 2.25004 9.49996C3.29171 9.04163 4.21879 8.71871 5.03129 8.53121C5.84379 8.34371 6.66671 8.24996 7.50004 8.24996C8.33337 8.24996 9.15282 8.34371 9.95837 8.53121C10.7639 8.71871 11.6875 9.04163 12.7292 9.49996C13.1875 9.70829 13.5417 10.0069 13.7917 10.3958C14.0417 10.7847 14.1667 11.2222 14.1667 11.7083V13.6666H0.833374ZM2.08337 12.4166H12.9167V11.7083C12.9167 11.4861 12.8542 11.2743 12.7292 11.0729C12.6042 10.8715 12.4375 10.7222 12.2292 10.625C11.2431 10.1666 10.4098 9.86454 9.72921 9.71871C9.04865 9.57288 8.3056 9.49996 7.50004 9.49996C6.69449 9.49996 5.94796 9.57288 5.26046 9.71871C4.57296 9.86454 3.73615 10.1666 2.75004 10.625C2.54171 10.7222 2.37851 10.8715 2.26046 11.0729C2.1424 11.2743 2.08337 11.4861 2.08337 11.7083V12.4166ZM7.50004 5.72913C8.04171 5.72913 8.48962 5.55204 8.84379 5.19788C9.19796 4.84371 9.37504 4.39579 9.37504 3.85413C9.37504 3.31246 9.19796 2.86454 8.84379 2.51038C8.48962 2.15621 8.04171 1.97913 7.50004 1.97913C6.95837 1.97913 6.51046 2.15621 6.15629 2.51038C5.80212 2.86454 5.62504 3.31246 5.62504 3.85413C5.62504 4.39579 5.80212 4.84371 6.15629 5.19788C6.51046 5.55204 6.95837 5.72913 7.50004 5.72913Z" fill="#262424"/>
</svg>
