<?xml version="1.0" standalone="no"?>
<!DOCTYPE svg PUBLIC "-//W3C//DTD SVG 20010904//EN"
 "http://www.w3.org/TR/2001/REC-SVG-20010904/DTD/svg10.dtd">
<svg version="1.0" xmlns="http://www.w3.org/2000/svg"
 width="162.000000pt" height="161.000000pt" viewBox="0 0 162.000000 161.000000"
 preserveAspectRatio="xMidYMid meet">

<g transform="translate(0.000000,161.000000) scale(0.100000,-0.100000)"
fill="#000000" stroke="none">
<path d="M198 1557 c-67 -19 -113 -58 -135 -114 -15 -39 -18 -76 -18 -198 0
-82 4 -167 8 -187 10 -47 48 -93 99 -119 59 -30 200 -44 315 -31 123 14 174
39 211 100 25 44 27 55 31 193 5 229 -20 302 -122 345 -55 23 -318 30 -389 11z
m349 -121 c43 -22 48 -44 48 -206 0 -157 -9 -182 -72 -199 -51 -14 -248 -12
-298 3 -58 17 -65 37 -65 207 0 170 8 190 83 208 66 16 265 7 304 -13z"/>
<path d="M1069 1556 c-127 -34 -169 -136 -155 -381 13 -219 74 -268 331 -269
206 0 292 38 323 141 15 51 16 324 1 378 -16 56 -73 109 -139 129 -65 19 -292
21 -361 2z m346 -117 c46 -22 57 -70 53 -227 -3 -131 -3 -134 -30 -157 -15
-13 -48 -27 -73 -30 -67 -11 -256 0 -288 15 -40 19 -49 64 -45 221 3 156 10
171 82 188 59 14 265 7 301 -10z"/>
<path d="M221 690 c-71 -15 -126 -54 -153 -107 -21 -45 -23 -60 -23 -213 0
-110 4 -177 13 -202 16 -46 79 -103 129 -118 62 -18 231 -24 313 -11 97 15
148 44 180 101 23 41 25 57 28 192 5 187 -7 247 -56 296 -21 21 -55 43 -77 51
-48 16 -292 24 -354 11z m318 -121 c46 -16 56 -55 56 -215 0 -155 -4 -166 -62
-191 -41 -17 -264 -17 -313 0 -52 18 -60 43 -60 199 0 147 7 180 41 199 53 28
266 33 338 8z"/>
<path d="M1093 690 c-84 -18 -139 -63 -164 -137 -19 -52 -18 -324 0 -376 20
-59 65 -103 124 -124 66 -22 294 -25 375 -4 67 17 125 69 141 126 14 52 14
328 0 380 -14 50 -73 109 -124 125 -49 15 -295 22 -352 10z m322 -124 c45 -19
55 -59 54 -206 0 -143 -12 -181 -59 -197 -44 -15 -262 -17 -312 -2 -58 15 -68
45 -68 192 0 69 3 139 6 156 8 40 39 61 106 71 71 12 232 3 273 -14z"/>
</g>
</svg>
