<svg width="29" height="27" viewBox="0 0 29 27" fill="none" xmlns="http://www.w3.org/2000/svg">
<path fill-rule="evenodd" clip-rule="evenodd" d="M27.8371 2.63375C27.9302 2.72664 28.0041 2.837 28.0545 2.95849C28.1049 3.07998 28.1309 3.21022 28.1309 3.34175C28.1309 3.47329 28.1049 3.60353 28.0545 3.72502C28.0041 3.84651 27.9302 3.95686 27.8371 4.04975L13.8371 18.0498C13.7442 18.1429 13.6339 18.2168 13.5124 18.2672C13.3909 18.3176 13.2606 18.3435 13.1291 18.3435C12.9976 18.3435 12.8673 18.3176 12.7458 18.2672C12.6243 18.2168 12.514 18.1429 12.4211 18.0498L6.4211 12.0498C6.32813 11.9568 6.25437 11.8464 6.20405 11.7249C6.15374 11.6034 6.12784 11.4732 6.12784 11.3418C6.12784 11.2103 6.15374 11.0801 6.20405 10.9586C6.25437 10.8371 6.32813 10.7267 6.4211 10.6338C6.51408 10.5408 6.62446 10.467 6.74593 10.4167C6.86741 10.3664 6.99761 10.3405 7.1291 10.3405C7.26059 10.3405 7.39079 10.3664 7.51227 10.4167C7.63375 10.467 7.74413 10.5408 7.8371 10.6338L13.1291 15.9278L26.4211 2.63375C26.514 2.54063 26.6243 2.46674 26.7458 2.41633C26.8673 2.36592 26.9976 2.33997 27.1291 2.33997C27.2606 2.33997 27.3909 2.36592 27.5124 2.41633C27.6339 2.46674 27.7442 2.54063 27.8371 2.63375Z" fill="#2DC071"/>
<path fill-rule="evenodd" clip-rule="evenodd" d="M13.1289 2.34165C10.9533 2.34165 8.82659 2.98679 7.01765 4.19549C5.20871 5.40418 3.79881 7.12215 2.96625 9.13214C2.13369 11.1421 1.91585 13.3539 2.34029 15.4876C2.76472 17.6214 3.81237 19.5815 5.35075 21.1198C6.88913 22.6582 8.84914 23.7059 10.9829 24.1303C13.1167 24.5547 15.3285 24.3369 17.3384 23.5043C19.3484 22.6718 21.0664 21.2619 22.2751 19.4529C23.4838 17.644 24.1289 15.5173 24.1289 13.3417C24.1289 13.0764 24.2343 12.8221 24.4218 12.6345C24.6094 12.447 24.8637 12.3417 25.1289 12.3417C25.3941 12.3417 25.6485 12.447 25.836 12.6345C26.0236 12.8221 26.1289 13.0764 26.1289 13.3417C26.1286 16.2033 25.184 18.9849 23.4416 21.255C21.6993 23.5252 19.2566 25.157 16.4924 25.8973C13.7281 26.6377 10.7968 26.4454 8.15308 25.35C5.50932 24.2547 3.30085 22.3176 1.87018 19.8393C0.4395 17.3609 -0.133437 14.4797 0.240223 11.6425C0.613883 8.80535 1.91326 6.17074 3.93683 4.1473C5.96041 2.12386 8.59509 0.824652 11.4323 0.451174C14.2695 0.077696 17.1506 0.650817 19.6289 2.08165C19.7484 2.14417 19.8541 2.23021 19.9394 2.33461C20.0248 2.439 20.0882 2.55959 20.1258 2.68912C20.1634 2.81865 20.1744 2.95444 20.1581 3.08832C20.1418 3.22221 20.0987 3.35142 20.0312 3.46818C19.9637 3.58495 19.8733 3.68685 19.7654 3.76777C19.6575 3.84869 19.5343 3.90694 19.4033 3.93903C19.2723 3.97111 19.1362 3.97637 19.0031 3.95448C18.87 3.93259 18.7427 3.88401 18.6289 3.81165C16.9574 2.84504 15.0598 2.33788 13.1289 2.34165Z" fill="#2DC071"/>
</svg>
